<svg width="276" height="164" viewBox="0 0 276 164" fill="none" xmlns="http://www.w3.org/2000/svg">
<rect x="0.5" y="0.5" width="275" height="163" rx="11.5" fill="#F2F2F2"/>
<path opacity="0.4" d="M119.096 84.94V102.195C119.096 106.64 115.59 111.4 111.375 112.8L100.077 116.51C98.0938 117.175 94.8708 117.175 92.9229 116.51L81.625 112.8C77.375 111.4 73.9042 106.64 73.9042 102.195L73.9396 84.94L89.5938 95.02C93.4188 97.505 99.7229 97.505 103.548 95.02L119.096 84.94Z" fill="#CCCCCC"/>
<path d="M124.763 62.61L103.548 48.855C99.7229 46.37 93.4188 46.37 89.5938 48.855L68.2729 62.61C61.4375 66.985 61.4375 76.89 68.2729 81.3L73.9396 84.94L89.5938 95.02C93.4188 97.505 99.7229 97.505 103.548 95.02L119.096 84.94L123.948 81.79V92.5C123.948 93.935 125.152 95.125 126.604 95.125C128.056 95.125 129.26 93.935 129.26 92.5V75.28C130.677 70.765 129.225 65.515 124.763 62.61Z" fill="#CCCCCC"/>
<path d="M147 72.8957C147.817 72.5356 148.567 72.1396 149.249 71.7075C149.944 71.2874 150.493 70.8913 150.895 70.5192C151.31 70.1471 151.517 69.8531 151.517 69.637C151.517 69.1569 151.139 67.7286 150.383 65.3521L152.852 64.3799C153.157 65.2081 153.395 66.0903 153.565 67.0265C153.736 67.9507 153.821 68.8209 153.821 69.637C153.821 70.8853 153.346 72.0255 152.395 73.0577C151.444 74.09 150.127 74.9781 148.445 75.7223L147 72.8957ZM151.298 59.0148L153.236 60.9232L151.298 62.8496L149.341 60.9232L151.298 59.0148Z" fill="#CCCCCC"/>
<path d="M154.019 72.8957C154.835 72.5356 155.585 72.1396 156.268 71.7075C156.963 71.2874 157.511 70.8913 157.914 70.5192C158.328 70.1471 158.536 69.8531 158.536 69.637C158.536 69.1569 158.158 67.7286 157.402 65.3521L159.871 64.3799C160.175 65.2081 160.413 66.0903 160.584 67.0265C160.754 67.9507 160.84 68.8209 160.84 69.637C160.84 70.8853 160.364 72.0255 159.413 73.0577C158.462 74.09 157.146 74.9781 155.463 75.7223L154.019 72.8957Z" fill="#CCCCCC"/>
<path d="M162.542 70.3032C162.688 69.403 162.761 68.1307 162.761 66.4864C162.761 64.842 162.694 63.1017 162.56 61.2653C162.438 59.4289 162.298 58.0666 162.139 57.1785L164.974 56.5483C165.096 57.3765 165.206 58.6368 165.303 60.3291C165.401 62.0095 165.449 63.6718 165.449 65.3161C165.449 67.5846 165.352 69.337 165.157 70.5732L162.542 70.3032Z" fill="#CCCCCC"/>
<path d="M187.516 70.4112C186.979 70.3992 186.504 70.2792 186.089 70.0511C185.675 69.8231 185.333 69.499 185.065 69.0789C184.712 69.523 184.346 69.8531 183.968 70.0691C183.59 70.2852 183.163 70.3992 182.688 70.4112H182.615C182.285 70.3872 182.017 70.3392 181.81 70.2672C181.712 71.3234 181.377 72.2656 180.804 73.0938C180.231 73.9219 179.481 74.5701 178.555 75.0382C177.628 75.5063 176.598 75.7403 175.464 75.7403C174.33 75.7403 173.312 75.5303 172.41 75.1102C171.508 74.7021 170.795 74.084 170.27 73.2558C169.758 72.4396 169.502 71.4434 169.502 70.2672C169.502 69.9791 169.508 69.7631 169.521 69.619C169.618 68.4668 170.051 67.0685 170.819 65.4242L172.922 66.3604C172.581 67.1645 172.337 67.8007 172.191 68.2688C172.044 68.7368 171.971 69.247 171.971 69.7991C171.971 71.5034 173.136 72.3556 175.464 72.3556C176.244 72.3556 176.939 72.2296 177.549 71.9775C178.171 71.7375 178.658 71.4074 179.012 70.9873C179.365 70.5672 179.542 70.1111 179.542 69.619C179.542 69.0669 179.116 67.6626 178.262 65.4062L180.603 64.1279C180.81 64.62 180.975 65.0641 181.097 65.4602C181.255 65.8803 181.395 66.1983 181.517 66.4144C181.639 66.6184 181.792 66.7744 181.974 66.8825C182.17 66.9785 182.438 67.0265 182.779 67.0265C183.316 67.0145 183.712 66.7444 183.968 66.2163C184.199 65.7362 184.401 65.0881 184.571 64.2719L186.821 64.3619C186.784 64.566 186.741 64.842 186.693 65.1901C186.656 65.5262 186.638 65.7902 186.638 65.9823C186.638 66.2943 186.711 66.5464 186.857 66.7384C187.016 66.9305 187.247 67.0265 187.552 67.0265H187.57C187.851 67.0265 188.089 66.9425 188.284 66.7744C188.479 66.6064 188.576 66.4144 188.576 66.1983C188.576 65.7902 188.241 64.782 187.57 63.1737L189.82 61.9494C190.051 62.4175 190.295 63.1017 190.551 64.0019C190.82 64.9021 190.954 65.6882 190.954 66.3604C190.954 67.0805 190.813 67.7526 190.533 68.3768C190.253 68.9889 189.856 69.481 189.344 69.8531C188.832 70.2252 188.253 70.4112 187.607 70.4112H187.516ZM183.62 59.2489L185.23 60.8152L183.62 62.4175L182.011 60.8152L183.62 59.2489ZM185.358 57.1965L186.766 58.5827L185.358 59.987L183.95 58.5827L185.358 57.1965ZM187.132 59.2489L188.723 60.8152L187.132 62.4175L185.504 60.8152L187.132 59.2489Z" fill="#CCCCCC"/>
<path d="M190.379 72.8957C191.196 72.5356 191.946 72.1396 192.629 71.7075C193.324 71.2874 193.872 70.8913 194.275 70.5192C194.689 70.1471 194.896 69.8531 194.896 69.637C194.896 69.1569 194.518 67.7286 193.763 65.3521L196.231 64.3799C196.536 65.2081 196.774 66.0903 196.945 67.0265C197.115 67.9507 197.201 68.8209 197.201 69.637C197.201 70.8853 196.725 72.0255 195.774 73.0577C194.823 74.09 193.506 74.9781 191.824 75.7223L190.379 72.8957ZM194.677 59.0148L196.615 60.9232L194.677 62.8496L192.72 60.9232L194.677 59.0148Z" fill="#CCCCCC"/>
<path d="M198.592 72.8057C200.189 72.4696 201.438 72.1156 202.341 71.7435C203.243 71.3714 203.877 70.9273 204.242 70.4112C202.926 70.3752 201.859 70.2192 201.042 69.9431C200.225 69.667 199.652 69.1569 199.323 68.4128C199.104 67.9447 198.994 67.3866 198.994 66.7384C198.994 65.9703 199.158 65.2081 199.488 64.452C199.817 63.6958 200.268 63.0777 200.841 62.5976C201.414 62.1175 202.054 61.8774 202.761 61.8774C203.395 61.8774 203.986 62.1055 204.535 62.5616C205.096 63.0057 205.571 63.6178 205.961 64.398C206.352 65.1781 206.62 66.0543 206.766 67.0265H207.607L207.79 68.7188L207.607 70.4112H206.675C206.309 71.7795 205.516 72.9197 204.297 73.8319C203.078 74.7561 201.536 75.3862 199.671 75.7223L198.592 72.8057ZM201.335 66.4864C201.493 66.6664 201.822 66.7984 202.322 66.8825C202.822 66.9545 203.499 67.0025 204.352 67.0265C204.181 66.4504 203.95 65.9643 203.657 65.5682C203.377 65.1721 203.072 64.9321 202.743 64.848C202.633 64.812 202.536 64.794 202.45 64.794C202.109 64.794 201.816 64.9441 201.572 65.2441C201.341 65.5442 201.225 65.8442 201.225 66.1443C201.225 66.2763 201.262 66.3904 201.335 66.4864Z" fill="#CCCCCC"/>
<path d="M207.434 67.0265H207.763C208.629 67.0265 209.391 66.4564 210.049 65.3161C210.695 64.1639 211.299 63.3297 211.86 62.8136C212.421 62.2855 213.048 62.0215 213.743 62.0215C214.45 62.0215 215.066 62.2495 215.59 62.7056C216.127 63.1497 216.535 63.7318 216.816 64.452C217.096 65.1601 217.236 65.9043 217.236 66.6844C217.236 67.4406 217.102 68.1367 216.834 68.7729C216.566 69.409 216.17 69.8891 215.645 70.2132C215.304 70.4172 214.926 70.5192 214.511 70.5192C213.536 70.5192 212.293 70.0511 210.781 69.1149C210.403 69.547 209.946 69.8711 209.409 70.0871C208.885 70.3032 208.318 70.4112 207.708 70.4112H207.361L207.434 67.0265ZM212.225 66.4144C212.75 66.7384 213.225 66.9965 213.652 67.1885C214.091 67.3686 214.414 67.4586 214.621 67.4586C214.707 67.4586 214.767 67.4406 214.804 67.4046C214.95 67.2725 215.023 67.0625 215.023 66.7744C215.023 66.3664 214.895 65.9763 214.639 65.6042C214.396 65.2321 214.073 65.0461 213.67 65.0461C213.195 65.0461 212.713 65.5022 212.225 66.4144Z" fill="#CCCCCC"/>
<path d="M218.94 70.3032C219.013 69.547 219.05 68.6108 219.05 67.4946C219.05 66.0423 218.995 64.476 218.885 62.7956C218.788 61.1033 218.672 59.777 218.538 58.8168L221.372 58.1867C221.47 59.0868 221.555 60.2871 221.628 61.7874C221.702 63.2877 221.738 64.764 221.738 66.2163C221.738 67.9087 221.677 69.361 221.555 70.5732L218.94 70.3032ZM216.727 56.8004C216.983 56.2483 217.3 55.8162 217.678 55.5041C218.044 55.192 218.44 55.036 218.867 55.036C219.062 55.036 219.245 55.066 219.416 55.126C219.599 55.174 219.8 55.2521 220.019 55.3601C220.239 55.4561 220.409 55.5281 220.531 55.5761C220.665 55.6241 220.805 55.6481 220.952 55.6481C221.147 55.6481 221.342 55.5881 221.537 55.4681C221.744 55.3481 221.909 55.192 222.031 55L223 55.8102C222.72 56.2423 222.403 56.5783 222.049 56.8184C221.695 57.0464 221.33 57.1604 220.952 57.1604C220.745 57.1604 220.549 57.1364 220.367 57.0884C220.196 57.0284 219.983 56.9384 219.727 56.8184C219.58 56.7464 219.428 56.6864 219.269 56.6383C219.123 56.5783 218.989 56.5483 218.867 56.5483C218.648 56.5483 218.44 56.6263 218.245 56.7824C218.05 56.9384 217.892 57.1484 217.77 57.4125L216.727 56.8004Z" fill="#CCCCCC"/>
<path d="M154.114 107.712C153.114 107.712 152.187 107.514 151.334 107.118C150.493 106.722 149.816 106.152 149.304 105.407C148.792 104.663 148.536 103.787 148.536 102.779C148.536 102.647 148.548 102.425 148.573 102.113C148.646 101.417 148.804 100.696 149.048 99.9523C149.304 99.2082 149.572 98.524 149.853 97.8999L151.974 98.8361C151.657 99.5802 151.419 100.18 151.261 100.636C151.115 101.081 151.029 101.573 151.005 102.113C150.98 102.761 151.255 103.289 151.828 103.697C152.413 104.117 153.175 104.327 154.114 104.327C155.272 104.327 156.162 104.051 156.784 103.499C157.405 102.959 157.71 102.119 157.698 100.979C157.674 99.3102 157.564 97.3418 157.369 95.0733C157.174 92.8048 156.973 91.0045 156.765 89.6722L159.6 89.0421C159.758 90.1583 159.88 91.8687 159.966 94.1731C160.063 96.4776 160.112 98.7341 160.112 100.943C160.112 102.323 159.868 103.523 159.381 104.543C158.905 105.563 158.216 106.344 157.314 106.884C156.424 107.436 155.357 107.712 154.114 107.712Z" fill="#CCCCCC"/>
<path d="M166.034 102.905C163.364 102.905 162.011 101.291 161.974 98.0619C161.914 94.7372 161.718 91.9407 161.389 89.6722L164.187 89.0421C164.346 90.1703 164.462 91.5446 164.535 93.1649C164.62 94.7853 164.663 96.3096 164.663 97.7379C164.663 98.218 164.699 98.584 164.772 98.8361C164.858 99.0881 164.998 99.2682 165.193 99.3762C165.388 99.4722 165.669 99.5202 166.034 99.5202H166.126L166.309 101.213L166.126 102.905H166.034Z" fill="#CCCCCC"/>
<path d="M165.964 99.5202H166.056C167.007 99.5202 167.744 99.4782 168.269 99.3942C168.793 99.3102 169.159 99.1782 169.366 98.9981C169.573 98.8061 169.683 98.554 169.695 98.242C169.683 97.7019 169.616 97.1137 169.494 96.4776L171.762 96.0635C171.932 97.0477 172.018 98.0499 172.018 99.0701C172.091 99.1902 172.225 99.2982 172.42 99.3942C172.615 99.4782 172.871 99.5202 173.188 99.5202H173.261L173.444 101.213L173.261 102.905H173.17C172.706 102.905 172.261 102.803 171.835 102.599C171.42 102.395 171.048 102.125 170.719 101.789C170.305 102.173 169.732 102.455 169 102.635C168.281 102.815 167.299 102.905 166.056 102.905H165.964V99.5202ZM167.135 91.5266L168.726 93.0929C169.433 92.3968 169.787 92.0487 169.787 92.0487L170.317 91.5266L172.018 93.2009L170.317 94.8933L168.726 93.327C168.726 93.327 168.196 93.8491 167.135 94.8933L165.416 93.2009L167.135 91.5266Z" fill="#CCCCCC"/>
<path d="M173.09 99.5202H173.182C174.133 99.5202 174.87 99.4782 175.394 99.3942C175.919 99.3102 176.284 99.1782 176.492 98.9981C176.699 98.8061 176.809 98.554 176.821 98.242C176.809 97.7019 176.742 97.1137 176.62 96.4776L178.887 96.0635C179.058 97.0477 179.143 98.0499 179.143 99.0701C179.216 99.1902 179.351 99.2982 179.546 99.3942C179.741 99.4782 179.997 99.5202 180.314 99.5202H180.387L180.57 101.213L180.387 102.905H180.295C179.832 102.905 179.387 102.803 178.96 102.599C178.546 102.395 178.174 102.125 177.845 101.789C177.43 102.173 176.857 102.455 176.126 102.635C175.407 102.815 174.425 102.905 173.182 102.905H173.09V99.5202ZM175.998 107.694L174.407 106.128C173.7 106.824 173.346 107.172 173.346 107.172L172.816 107.694L171.115 106.02L172.816 104.327L174.407 105.894C174.407 105.894 174.937 105.371 175.998 104.327L177.717 106.02L175.998 107.694Z" fill="#CCCCCC"/>
<path d="M194.005 102.905C191.603 102.893 189.951 102.173 189.049 100.744C187.866 101.345 186.854 101.795 186.013 102.095C185.172 102.395 184.331 102.605 183.489 102.725C182.648 102.833 181.624 102.893 180.417 102.905H180.179V99.5202H181.331C182.599 99.5202 183.764 99.4182 184.824 99.2142C185.897 98.9981 187.062 98.596 188.317 98.0079C188.037 97.8879 187.811 97.7799 187.641 97.6839C187.19 97.4558 186.714 97.2758 186.214 97.1437C185.727 97.0117 185.294 96.9457 184.916 96.9457C184.196 96.9457 183.569 97.2818 183.032 97.9539L181.149 96.5676C182.136 94.6352 183.422 93.669 185.007 93.669C185.531 93.669 186.037 93.753 186.525 93.9211C187.013 94.0771 187.732 94.4012 188.683 94.8933C189.378 95.2414 189.963 95.5054 190.439 95.6854C190.926 95.8535 191.469 95.9975 192.066 96.1175L192.176 99.1782C191.993 99.2382 191.847 99.2922 191.737 99.3402C192.078 99.4602 192.438 99.5202 192.816 99.5202H194.206L194.389 101.213L194.206 102.905H194.005ZM186.507 104.165L188.445 106.074L186.507 108L184.55 106.074L186.507 104.165Z" fill="#CCCCCC"/>
<path d="M194.02 99.5202H197.842L198.025 101.213L197.842 102.905H194.02V99.5202Z" fill="#CCCCCC"/>
<path d="M197.646 99.5202H201.468L201.651 101.213L201.468 102.905H197.646V99.5202Z" fill="#CCCCCC"/>
<path d="M201.271 99.5202H205.093L205.276 101.213L205.093 102.905H201.271V99.5202Z" fill="#CCCCCC"/>
<path d="M204.878 99.5202H205.866C207 99.5202 207.804 99.4302 208.28 99.2502C208.767 99.0701 209.011 98.8181 209.011 98.494C209.011 98.194 208.676 97.2518 208.005 95.6674L210.328 94.4072C210.572 94.9113 210.816 95.5894 211.059 96.4416C211.315 97.2818 211.443 98.0379 211.443 98.7101C211.443 100.054 211.017 101.093 210.163 101.825C209.31 102.545 208.06 102.905 206.414 102.905H204.878V99.5202ZM208.261 107.694L206.67 106.128C205.963 106.824 205.61 107.172 205.61 107.172L205.079 107.694L203.379 106.02L205.079 104.327L206.67 105.894C206.67 105.894 207.201 105.371 208.261 104.327L209.98 106.02L208.261 107.694Z" fill="#CCCCCC"/>
<path d="M217.013 103.013C215.318 103.013 213.837 102.503 212.569 101.483L213.739 99.1242C214.154 99.3042 214.592 99.4662 215.056 99.6103C215.519 99.7423 216.056 99.8083 216.665 99.8083C217.311 99.7963 217.842 99.7363 218.256 99.6283C218.683 99.5202 218.975 99.4002 219.134 99.2682C218.805 98.0919 217.525 96.7837 215.294 95.3434L216.921 92.3728C218.372 93.333 219.53 94.4312 220.396 95.6674C221.261 96.8917 221.694 98.0739 221.694 99.2142C221.694 99.7183 221.591 100.222 221.383 100.726C221.066 101.471 220.499 102.041 219.683 102.437C218.866 102.821 217.976 103.013 217.013 103.013Z" fill="#CCCCCC"/>
<rect x="0.5" y="0.5" width="275" height="163" rx="11.5" stroke="#E6E6E6"/>
</svg>
