<svg width="20" height="20" viewBox="0 0 20 20" fill="none" xmlns="http://www.w3.org/2000/svg">
<path d="M18.3346 14.1696C18.3343 15.3093 17.9447 16.4146 17.2305 17.3027C16.5163 18.1907 15.5202 18.8082 14.4071 19.053L13.8755 17.458C14.3623 17.3778 14.8253 17.1906 15.2311 16.9099C15.6369 16.6292 15.9754 16.2619 16.2221 15.8346H14.168C13.7259 15.8346 13.302 15.659 12.9895 15.3465C12.6769 15.0339 12.5013 14.61 12.5013 14.168V10.8346C12.5013 10.3926 12.6769 9.96869 12.9895 9.65612C13.302 9.34356 13.7259 9.16797 14.168 9.16797H16.6163C16.4129 7.55705 15.6287 6.0757 14.4108 5.00187C13.1929 3.92804 11.625 3.33553 10.0013 3.33553C8.3776 3.33553 6.80969 3.92804 5.59178 5.00187C4.37387 6.0757 3.58966 7.55705 3.3863 9.16797H5.83464C6.27666 9.16797 6.70059 9.34356 7.01315 9.65612C7.32571 9.96869 7.5013 10.3926 7.5013 10.8346V14.168C7.5013 14.61 7.32571 15.0339 7.01315 15.3465C6.70059 15.659 6.27666 15.8346 5.83464 15.8346H3.33464C2.89261 15.8346 2.46868 15.659 2.15612 15.3465C1.84356 15.0339 1.66797 14.61 1.66797 14.168V10.0013C1.66797 5.3988 5.3988 1.66797 10.0013 1.66797C14.6038 1.66797 18.3346 5.3988 18.3346 10.0013V14.1696ZM16.668 14.168V10.8346H14.168V14.168H16.668ZM3.33464 10.8346V14.168H5.83464V10.8346H3.33464Z" fill="#212121"/>
<path d="M18.3346 14.1696C18.3343 15.3093 17.9447 16.4146 17.2305 17.3027C16.5163 18.1907 15.5202 18.8082 14.4071 19.053L13.8755 17.458C14.3623 17.3778 14.8253 17.1906 15.2311 16.9099C15.6369 16.6292 15.9754 16.2619 16.2221 15.8346H14.168C13.7259 15.8346 13.302 15.659 12.9895 15.3465C12.6769 15.0339 12.5013 14.61 12.5013 14.168V10.8346C12.5013 10.3926 12.6769 9.96869 12.9895 9.65612C13.302 9.34356 13.7259 9.16797 14.168 9.16797H16.6163C16.4129 7.55705 15.6287 6.0757 14.4108 5.00187C13.1929 3.92804 11.625 3.33553 10.0013 3.33553C8.3776 3.33553 6.80969 3.92804 5.59178 5.00187C4.37387 6.0757 3.58966 7.55705 3.3863 9.16797H5.83464C6.27666 9.16797 6.70059 9.34356 7.01315 9.65612C7.32571 9.96869 7.5013 10.3926 7.5013 10.8346V14.168C7.5013 14.61 7.32571 15.0339 7.01315 15.3465C6.70059 15.659 6.27666 15.8346 5.83464 15.8346H3.33464C2.89261 15.8346 2.46868 15.659 2.15612 15.3465C1.84356 15.0339 1.66797 14.61 1.66797 14.168V10.0013C1.66797 5.3988 5.3988 1.66797 10.0013 1.66797C14.6038 1.66797 18.3346 5.3988 18.3346 10.0013V14.1696ZM16.668 14.168V10.8346H14.168V14.168H16.668ZM3.33464 10.8346V14.168H5.83464V10.8346H3.33464Z" fill="black" fill-opacity="0.2"/>
</svg>
