<svg width="90" height="90" viewBox="0 0 90 90" fill="none" xmlns="http://www.w3.org/2000/svg">
<mask id="path-1-inside-1_216_679" fill="white">
<path d="M31.3902 84.6128C27.2951 81.7689 23.8248 78.1154 21.1878 73.8719C18.5507 69.6284 16.8012 64.8824 16.0443 59.9189C15.2875 54.9554 15.5389 49.8767 16.7835 44.9879C18.0281 40.0992 20.2401 35.5012 23.2869 31.47C26.3336 27.4388 30.1521 24.0577 34.5131 21.5297C38.8741 19.0016 43.6876 17.3788 48.6645 16.7587C53.6415 16.1385 58.6792 16.5339 63.4751 17.921C68.2711 19.3081 72.7263 21.6583 76.5732 24.8306L66.2076 37.4569C64.0366 35.6668 61.5224 34.3405 58.8159 33.5577C56.1095 32.7749 53.2665 32.5518 50.4579 32.9017C47.6493 33.2517 44.9329 34.1675 42.4718 35.5941C40.0108 37.0208 37.8559 38.9289 36.1365 41.2038C34.4172 43.4787 33.1688 46.0735 32.4665 48.8323C31.7641 51.5912 31.6222 54.4572 32.0493 57.2583C32.4764 60.0594 33.4637 62.7377 34.9519 65.1324C36.4401 67.5272 38.3985 69.5889 40.7095 71.1938L31.3902 84.6128Z"/>
</mask>
<path d="M31.3902 84.6128C27.2951 81.7689 23.8248 78.1154 21.1878 73.8719C18.5507 69.6284 16.8012 64.8824 16.0443 59.9189C15.2875 54.9554 15.5389 49.8767 16.7835 44.9879C18.0281 40.0992 20.2401 35.5012 23.2869 31.47C26.3336 27.4388 30.1521 24.0577 34.5131 21.5297C38.8741 19.0016 43.6876 17.3788 48.6645 16.7587C53.6415 16.1385 58.6792 16.5339 63.4751 17.921C68.2711 19.3081 72.7263 21.6583 76.5732 24.8306L66.2076 37.4569C64.0366 35.6668 61.5224 34.3405 58.8159 33.5577C56.1095 32.7749 53.2665 32.5518 50.4579 32.9017C47.6493 33.2517 44.9329 34.1675 42.4718 35.5941C40.0108 37.0208 37.8559 38.9289 36.1365 41.2038C34.4172 43.4787 33.1688 46.0735 32.4665 48.8323C31.7641 51.5912 31.6222 54.4572 32.0493 57.2583C32.4764 60.0594 33.4637 62.7377 34.9519 65.1324C36.4401 67.5272 38.3985 69.5889 40.7095 71.1938L31.3902 84.6128Z" stroke="#FFF2CC" stroke-width="8" mask="url(#path-1-inside-1_216_679)"/>
<circle cx="36.2339" cy="23.8355" r="20" transform="rotate(124.779 36.2339 23.8355)" fill="#FAD1D1"/>
</svg>
