<svg width="78" height="77" viewBox="0 0 78 77" fill="none" xmlns="http://www.w3.org/2000/svg">
<path fill-rule="evenodd" clip-rule="evenodd" d="M32.3184 24.2317C30.3538 24.4604 28.4392 24.9667 26.6299 25.7323L29.3084 30.3714C30.5036 29.9211 31.7528 29.6173 33.029 29.4688C35.1552 29.2214 37.3116 29.41 39.3686 30.0213C41.4255 30.6326 43.3408 31.6538 45.0004 33.0222C46.6601 34.3904 48.031 36.0783 49.0316 37.9845C50.0322 39.8906 50.6428 41.9771 50.8257 44.1194C51.0086 46.2618 50.7602 48.4169 50.0932 50.4552C49.4263 52.4936 48.3545 54.3729 46.9408 55.9792C46.0934 56.942 45.1339 57.7945 44.0847 58.5195L46.3823 63.3593C48.0437 62.3081 49.5512 61.0227 50.8579 59.538C52.7277 57.4135 54.1489 54.9237 55.0346 52.2169C55.9203 49.51 56.2522 46.6417 56.0082 43.7843C55.7643 40.9268 54.9495 38.1402 53.6121 35.5926C52.2747 33.0449 50.443 30.7902 48.2278 28.9639C46.0126 27.1377 43.4608 25.7783 40.7266 24.9657C37.9924 24.1532 35.1325 23.9043 32.3184 24.2317ZM47.4811 65.6739C46.7866 66.1004 46.0689 66.4909 45.3306 66.8434C45.3002 66.8579 45.2697 66.8724 45.2392 66.8868L40.7809 57.4955C40.7981 57.4874 40.8153 57.4793 40.8325 57.4711C42.4309 56.708 43.8581 55.629 45.03 54.2975C46.2145 52.9516 47.1139 51.3754 47.674 49.6636C48.2341 47.9518 48.4434 46.1396 48.2894 44.3359C48.1354 42.5323 47.6213 40.7743 46.7778 39.1676C45.9344 37.5609 44.7791 36.1386 43.3812 34.9862C41.9834 33.8338 40.3719 32.9749 38.6435 32.4613C36.9151 31.9476 35.1055 31.7898 33.3233 31.9972C31.5411 32.2046 29.8231 32.773 28.2725 33.6682L23.0742 24.6644C23.8121 24.2384 24.5714 23.8541 25.3485 23.5128C27.4652 22.5832 29.7142 21.9722 32.0242 21.7033C35.1822 21.3358 38.3889 21.6156 41.4517 22.5257C44.5144 23.4359 47.37 24.9578 49.847 26.9999C52.324 29.042 54.3713 31.5623 55.8659 34.4094C57.3605 37.2565 58.2716 40.3716 58.5445 43.5678C58.8173 46.7639 58.4464 49.9751 57.4538 53.0085C56.4613 56.0419 54.8677 58.8349 52.7687 61.2198C51.2333 62.9642 49.4507 64.464 47.4811 65.6739Z" fill="#FFD04C"/>
<circle cx="28.057" cy="26.9312" r="12.7273" transform="rotate(-120 28.057 26.9312)" fill="#EF5D5D"/>
</svg>
