<svg width="167" height="167" viewBox="0 0 167 167" fill="none" xmlns="http://www.w3.org/2000/svg">
<path fill-rule="evenodd" clip-rule="evenodd" d="M148.996 73.92H80.4562L19.1158 103.812C26.2431 114.515 36.2572 123.147 48.1244 128.678C62.631 135.44 79.0383 137.164 94.6722 133.562C110.305 129.961 124.221 121.253 134.17 108.88C142.322 98.743 147.421 86.6326 148.996 73.92ZM157.839 70.4366C158.017 67.681 155.761 65.44 153 65.44H79.6534C78.8944 65.44 78.1454 65.6128 77.4631 65.9453L11.7627 97.9617C9.26158 99.1805 8.22288 102.216 9.62651 104.618C17.6952 118.427 29.8618 129.521 44.5418 136.364C60.7649 143.926 79.1035 145.851 96.5759 141.826C114.048 137.8 129.627 128.062 140.779 114.194C150.878 101.635 156.809 86.3572 157.839 70.4366Z" fill="#DAF1DD"/>
<circle cx="79.5602" cy="65.44" r="42.4" fill="#D7E7F4"/>
</svg>
