<svg width="88" height="88" viewBox="0 0 88 88" fill="none" xmlns="http://www.w3.org/2000/svg">
<path fill-rule="evenodd" clip-rule="evenodd" d="M68.3255 45.9204C69.558 43.0671 70.3732 40.0637 70.753 36.9999H62.3351C62.0088 38.9804 61.4407 40.919 60.6401 42.7726C59.3062 45.8605 57.3552 48.6469 54.9071 50.966C52.4591 53.2849 49.5644 55.089 46.3982 56.2725C43.2321 57.4561 39.8579 57.9955 36.4777 57.8596C33.0974 57.7237 29.7782 56.9151 26.719 55.4808C23.6598 54.0464 20.9221 52.0151 18.6722 49.5059C16.4222 46.9966 14.7067 44.0614 13.6315 40.8755C12.987 38.9657 12.5808 36.9902 12.4185 34.9927L4.02668 34.3168C4.15184 37.4037 4.71673 40.4651 5.71055 43.41C7.13264 47.6239 9.40437 51.5143 12.3922 54.8464C15.3801 58.1786 19.0227 60.8839 23.103 62.797C27.1835 64.7102 31.6159 65.7908 36.1339 65.9725C40.6518 66.1541 45.1594 65.4329 49.3853 63.8532C53.6111 62.2735 57.4661 59.8688 60.7202 56.7863C63.9742 53.7038 66.5602 50.0073 68.3255 45.9204ZM0.0135239 33.9935C-0.0213335 32.7133 0.0111376 31.4297 0.111567 30.148C0.115707 30.0952 0.119962 30.0423 0.124333 29.9895L16.4078 31.3011C16.4053 31.3309 16.4029 31.3607 16.4006 31.3905C16.1832 34.1653 16.5302 36.9553 17.4215 39.5964C18.3224 42.2659 19.7608 44.7283 21.6503 46.8355C23.5398 48.9428 25.8415 50.6515 28.4171 51.8591C30.9927 53.0667 33.7891 53.7483 36.6384 53.8628C39.4876 53.9774 42.331 53.5226 44.9976 52.5258C47.6643 51.5289 50.0992 50.0106 52.1562 48.062C54.2133 46.1134 55.85 43.7748 56.968 41.1864C58.086 38.5981 58.6624 35.8135 58.6624 32.9999H75C75 34.3389 74.9263 35.6741 74.7802 36.9999C74.3822 40.6109 73.4467 44.1517 71.9976 47.5065C70.0164 52.0931 67.1162 56.2373 63.4711 59.6902C59.826 63.1431 55.5112 65.8336 50.7859 67.6C46.0605 69.3664 41.0221 70.1723 35.9732 69.9693C30.9243 69.7663 25.969 68.5586 21.405 66.4187C16.841 64.2788 12.7624 61.2509 9.41408 57.5168C6.0658 53.7827 3.51694 49.4194 1.92055 44.689C0.752849 41.2289 0.112387 37.6246 0.0135239 33.9935Z" fill="#FFC41F"/>
<circle cx="68" cy="38" r="20" fill="#EA2F2F"/>
</svg>
