<svg width="104" height="104" viewBox="0 0 104 104" fill="none" xmlns="http://www.w3.org/2000/svg">
<path fill-rule="evenodd" clip-rule="evenodd" d="M92.7882 46.034H50.1045L11.9044 64.6492C16.343 71.3148 22.5794 76.6901 29.9697 80.1348C39.0037 84.3457 49.2215 85.4192 58.9575 83.1763C68.6929 80.9336 77.3592 75.5106 83.5552 67.8054C88.6314 61.4926 91.8068 53.9509 92.7882 46.034ZM98.2947 43.8647C98.4057 42.1486 97.0011 40.7531 95.2815 40.7531H49.6045C49.1319 40.7531 48.6654 40.8607 48.2405 41.0677L7.32527 61.0061C5.7677 61.7651 5.12085 63.6555 5.99497 65.1515C11.0198 73.7512 18.5966 80.6601 27.7386 84.9213C37.8416 89.6305 49.2621 90.8292 60.1431 88.3225C71.0241 85.8158 80.7257 79.7512 87.6706 71.1147C93.96 63.2934 97.6535 53.7793 98.2947 43.8647Z" fill="#E5F6E7"/>
<circle cx="49.5465" cy="40.7531" r="26.4048" fill="#E3EEF7"/>
</svg>
