<svg width="109" height="51" viewBox="0 0 109 51" fill="none" xmlns="http://www.w3.org/2000/svg">
<path d="M0.214451 17.9115C0.83316 17.6345 1.40108 17.3298 1.91821 16.9973C2.44457 16.6741 2.86012 16.3694 3.16486 16.0831C3.47883 15.7968 3.63582 15.5706 3.63582 15.4044C3.63582 15.035 3.34955 13.9361 2.77701 12.1077L4.64699 11.3597C4.87785 11.9969 5.05793 12.6756 5.18721 13.3959C5.31649 14.1069 5.38113 14.7764 5.38113 15.4044C5.38113 16.3648 5.02099 17.242 4.3007 18.0362C3.58041 18.8304 2.58309 19.5137 1.30873 20.0862L0.214451 17.9115ZM3.4696 7.23188L4.93788 8.70016L3.4696 10.1823L1.98747 8.70016L3.4696 7.23188ZM5.53058 17.9115C6.14929 17.6345 6.71721 17.3298 7.23434 16.9973C7.7607 16.6741 8.17625 16.3694 8.48099 16.0831C8.79496 15.7968 8.95195 15.5706 8.95195 15.4044C8.95195 15.035 8.66568 13.9361 8.09314 12.1077L9.96312 11.3597C10.194 11.9969 10.3741 12.6756 10.5033 13.3959C10.6326 14.1069 10.6973 14.7764 10.6973 15.4044C10.6973 16.3648 10.3371 17.242 9.61683 18.0362C8.89654 18.8304 7.89922 19.5137 6.62486 20.0862L5.53058 17.9115ZM11.9863 15.9169C12.0971 15.2243 12.1526 14.2455 12.1526 12.9803C12.1526 11.7152 12.1018 10.3762 12.0002 8.96334C11.9078 7.55047 11.8016 6.50236 11.6816 5.81901L13.8286 5.3342C13.921 5.97137 14.0041 6.94099 14.0779 8.24305C14.1518 9.53588 14.1888 10.8148 14.1888 12.08C14.1888 13.8253 14.1149 15.1735 13.9671 16.1247L11.9863 15.9169ZM30.9026 16C30.4962 15.9908 30.1361 15.8984 29.8221 15.723C29.5081 15.5475 29.2496 15.2982 29.0464 14.975C28.7786 15.3166 28.5016 15.5706 28.2153 15.7368C27.9291 15.903 27.6058 15.9908 27.2457 16H27.2319H27.1903C26.941 15.9815 26.7378 15.9446 26.5808 15.8892C26.5069 16.7018 26.253 17.4267 25.819 18.0639C25.385 18.7011 24.817 19.1997 24.1152 19.5599C23.4134 19.92 22.6331 20.1001 21.7743 20.1001C20.9155 20.1001 20.1444 19.9385 19.4611 19.6153C18.7777 19.3013 18.2375 18.8257 17.8404 18.1886C17.4526 17.5606 17.2586 16.7942 17.2586 15.8892C17.2586 15.6676 17.2633 15.5013 17.2725 15.3905C17.3464 14.504 17.6742 13.4282 18.256 12.1631L19.8489 12.8834C19.5903 13.5021 19.4056 13.9915 19.2948 14.3516C19.184 14.7118 19.1286 15.1043 19.1286 15.529C19.1286 16.8403 20.0105 17.496 21.7743 17.496C22.3653 17.496 22.8917 17.399 23.3534 17.2051C23.8243 17.0204 24.1937 16.7665 24.4615 16.4433C24.7293 16.12 24.8632 15.7691 24.8632 15.3905C24.8632 14.9657 24.54 13.8853 23.8936 12.1492L25.6666 11.1658C25.8236 11.5444 25.9483 11.886 26.0406 12.1908C26.1607 12.514 26.2669 12.7587 26.3592 12.9249C26.4515 13.0819 26.567 13.202 26.7055 13.2851C26.8532 13.3589 27.0564 13.3959 27.315 13.3959C27.7213 13.3866 28.0214 13.1789 28.2153 12.7726C28.3908 12.4032 28.5431 11.9045 28.6724 11.2766L30.3762 11.3458C30.3485 11.5028 30.3162 11.7152 30.2792 11.983C30.2515 12.2416 30.2377 12.4447 30.2377 12.5925C30.2377 12.8326 30.2931 13.0265 30.4039 13.1743C30.5239 13.322 30.6994 13.3959 30.9303 13.3959H30.9441C31.1565 13.3959 31.3366 13.3312 31.4843 13.202C31.6321 13.0727 31.706 12.9249 31.706 12.7587C31.706 12.4447 31.452 11.669 30.9441 10.4316L32.6479 9.4897C32.8233 9.84985 33.008 10.3762 33.2019 11.0688C33.4051 11.7614 33.5067 12.3662 33.5067 12.8834C33.5067 13.4374 33.4005 13.9546 33.1881 14.4348C32.9757 14.9057 32.6756 15.2843 32.2877 15.5706C31.8999 15.8569 31.4612 16 30.9718 16H30.9026ZM27.9521 7.41195L29.1711 8.61705L27.9521 9.84985L26.7332 8.61705L27.9521 7.41195ZM29.2681 5.83286L30.3346 6.89944L29.2681 7.97987L28.2015 6.89944L29.2681 5.83286ZM30.6117 7.41195L31.8168 8.61705L30.6117 9.84985L29.3789 8.61705L30.6117 7.41195ZM33.0716 17.9115C33.6903 17.6345 34.2583 17.3298 34.7754 16.9973C35.3018 16.6741 35.7173 16.3694 36.0221 16.0831C36.336 15.7968 36.493 15.5706 36.493 15.4044C36.493 15.035 36.2067 13.9361 35.6342 12.1077L37.5042 11.3597C37.735 11.9969 37.9151 12.6756 38.0444 13.3959C38.1737 14.1069 38.2383 14.7764 38.2383 15.4044C38.2383 16.3648 37.8782 17.242 37.1579 18.0362C36.4376 18.8304 35.4403 19.5137 34.1659 20.0862L33.0716 17.9115ZM36.3268 7.23188L37.7951 8.70016L36.3268 10.1823L34.8447 8.70016L36.3268 7.23188ZM39.2919 17.8423C40.5016 17.5837 41.4482 17.3113 42.1315 17.025C42.8149 16.7388 43.2951 16.3971 43.5721 16C42.5748 15.9723 41.7668 15.8522 41.148 15.6399C40.5293 15.4275 40.0953 15.035 39.846 14.4625C39.6798 14.1023 39.5967 13.6729 39.5967 13.1743C39.5967 12.5832 39.7213 11.9969 39.9706 11.4151C40.22 10.8333 40.5617 10.3577 40.9957 9.98836C41.4297 9.61899 41.9145 9.4343 42.4501 9.4343C42.9303 9.4343 43.3782 9.60975 43.7937 9.96066C44.2185 10.3023 44.5786 10.7733 44.8741 11.3735C45.1697 11.9738 45.3728 12.6479 45.4836 13.3959H46.1208L46.2593 14.6979L46.1208 16H45.4144C45.1373 17.0527 44.5371 17.93 43.6136 18.6318C42.6902 19.3429 41.522 19.8277 40.1092 20.0862L39.2919 17.8423ZM41.3697 12.9803C41.4897 13.1188 41.739 13.2204 42.1177 13.2851C42.4963 13.3405 43.0088 13.3774 43.6552 13.3959C43.5259 12.9526 43.3505 12.5786 43.1288 12.2739C42.9164 11.9692 42.6856 11.7845 42.4362 11.7198C42.3531 11.6921 42.2793 11.6783 42.2146 11.6783C41.9561 11.6783 41.7344 11.7937 41.5497 12.0246C41.3743 12.2554 41.2866 12.4863 41.2866 12.7171C41.2866 12.8187 41.3143 12.9065 41.3697 12.9803ZM45.9896 13.3959H46.239C46.8946 13.3959 47.4718 12.9572 47.9704 12.08C48.4599 11.1935 48.917 10.5517 49.3418 10.1546C49.7665 9.74827 50.2421 9.54511 50.7685 9.54511C51.3041 9.54511 51.7704 9.72057 52.1675 10.0715C52.5738 10.4131 52.8832 10.861 53.0956 11.4151C53.308 11.9599 53.4142 12.5325 53.4142 13.1327C53.4142 13.7145 53.3126 14.2501 53.1094 14.7395C52.9063 15.2289 52.6061 15.5983 52.2091 15.8476C51.9505 16.0046 51.6642 16.0831 51.3502 16.0831C50.6115 16.0831 49.6696 15.723 48.5245 15.0027C48.2382 15.3351 47.8919 15.5844 47.4856 15.7507C47.0885 15.9169 46.6591 16 46.1974 16H45.9342L45.9896 13.3959ZM49.6188 12.9249C50.0159 13.1743 50.376 13.3728 50.6992 13.5205C51.0317 13.6591 51.2764 13.7283 51.4334 13.7283C51.498 13.7283 51.5442 13.7145 51.5719 13.6868C51.6827 13.5852 51.7381 13.4236 51.7381 13.202C51.7381 12.888 51.6411 12.5879 51.4472 12.3016C51.2625 12.0153 51.0178 11.8722 50.7131 11.8722C50.3529 11.8722 49.9882 12.2231 49.6188 12.9249ZM54.7047 15.9169C54.7601 15.3351 54.7878 14.6148 54.7878 13.756C54.7878 12.6387 54.7463 11.4336 54.6632 10.1407C54.5893 8.83867 54.5016 7.81827 54.4 7.07951L56.547 6.5947C56.6209 7.28728 56.6855 8.21073 56.7409 9.36504C56.7963 10.5193 56.824 11.6552 56.824 12.7726C56.824 14.0746 56.7779 15.192 56.6855 16.1247L54.7047 15.9169ZM53.0287 5.52812C53.2226 5.10333 53.4627 4.77089 53.749 4.5308C54.026 4.2907 54.3261 4.17065 54.6493 4.17065C54.7971 4.17065 54.9356 4.19374 55.0649 4.23991C55.2034 4.27685 55.3558 4.33687 55.522 4.41998C55.6882 4.49386 55.8175 4.54927 55.9098 4.5862C56.0114 4.62314 56.1176 4.64161 56.2284 4.64161C56.3762 4.64161 56.5239 4.59544 56.6717 4.50309C56.8287 4.41075 56.9533 4.2907 57.0457 4.14295L57.7798 4.76628C57.5674 5.09872 57.3273 5.35728 57.0595 5.54197C56.7917 5.71743 56.5147 5.80515 56.2284 5.80515C56.0714 5.80515 55.9237 5.78668 55.7852 5.74975C55.6559 5.70357 55.4943 5.63432 55.3004 5.54197C55.1895 5.48656 55.0741 5.44039 54.9541 5.40345C54.8433 5.35728 54.7417 5.3342 54.6493 5.3342C54.4831 5.3342 54.3261 5.39422 54.1784 5.51427C54.0306 5.63432 53.9106 5.79592 53.8182 5.99908L53.0287 5.52812ZM5.60265 44.6984C4.84542 44.6984 4.1436 44.546 3.49719 44.2413C2.86001 43.9366 2.3475 43.4979 1.95965 42.9254C1.57181 42.3528 1.37788 41.6787 1.37788 40.903C1.37788 40.8015 1.38712 40.6306 1.40559 40.3905C1.46099 39.8549 1.58104 39.3009 1.76573 38.7283C1.95965 38.1558 2.16281 37.6294 2.37521 37.1492L3.982 37.8695C3.74191 38.4421 3.56183 38.9038 3.44179 39.2547C3.33097 39.5964 3.26633 39.975 3.24786 40.3905C3.22939 40.8892 3.43717 41.2955 3.87119 41.6095C4.31444 41.9327 4.8916 42.0943 5.60265 42.0943C6.47992 42.0943 7.15404 41.8819 7.625 41.4571C8.09595 41.0416 8.32682 40.3951 8.31758 39.5179C8.29911 38.2343 8.216 36.7198 8.06825 34.9745C7.9205 33.2292 7.76813 31.844 7.61115 30.819L9.75816 30.3342C9.87821 31.193 9.97055 32.5089 10.0352 34.2819C10.1091 36.0549 10.146 37.791 10.146 39.4902C10.146 40.5521 9.96132 41.4756 9.59194 42.2605C9.23179 43.0454 8.71005 43.6457 8.0267 44.0612C7.35258 44.486 6.54457 44.6984 5.60265 44.6984ZM14.6318 41C12.6094 41 11.5844 39.758 11.5567 37.2739C11.5105 34.7159 11.3628 32.5643 11.1135 30.819L13.2328 30.3342C13.3528 31.2022 13.4405 32.2596 13.496 33.5062C13.5606 34.7529 13.5929 35.9257 13.5929 37.0246C13.5929 37.3939 13.6206 37.6756 13.676 37.8695C13.7407 38.0634 13.8469 38.202 13.9946 38.2851C14.1424 38.3589 14.3548 38.3959 14.6318 38.3959H14.701L14.8396 39.6979L14.701 41H14.6318ZM14.5789 38.3959H14.6481C15.3684 38.3959 15.9271 38.3636 16.3242 38.2989C16.7213 38.2343 16.9983 38.1327 17.1553 37.9942C17.3123 37.8464 17.3954 37.6525 17.4046 37.4124C17.3954 36.9969 17.3446 36.5444 17.2522 36.0549L18.9699 35.7364C19.0991 36.4936 19.1638 37.2647 19.1638 38.0496C19.2192 38.1419 19.3208 38.225 19.4685 38.2989C19.6163 38.3636 19.8102 38.3959 20.0503 38.3959H20.1057L20.2442 39.6979L20.1057 41H20.0364C19.6855 41 19.3485 40.9215 19.0253 40.7645C18.7113 40.6075 18.4296 40.3998 18.1803 40.1412C17.8663 40.4367 17.4323 40.6537 16.8783 40.7922C16.3334 40.9307 15.59 41 14.6481 41H14.5789V38.3959ZM15.4654 32.2457L16.6705 33.4508C17.2061 32.9152 17.4739 32.6474 17.4739 32.6474L17.8756 32.2457L19.1638 33.5339L17.8756 34.836L16.6705 33.6309C16.6705 33.6309 16.2688 34.0326 15.4654 34.836L14.1633 33.5339L15.4654 32.2457ZM19.9762 38.3959H20.0454C20.7657 38.3959 21.3244 38.3636 21.7215 38.2989C22.1186 38.2343 22.3956 38.1327 22.5526 37.9942C22.7096 37.8464 22.7927 37.6525 22.8019 37.4124C22.7927 36.9969 22.7419 36.5444 22.6495 36.0549L24.3671 35.7364C24.4964 36.4936 24.5611 37.2647 24.5611 38.0496C24.6165 38.1419 24.7181 38.225 24.8658 38.2989C25.0136 38.3636 25.2075 38.3959 25.4476 38.3959H25.503L25.6415 39.6979L25.503 41H25.4337C25.0828 41 24.7458 40.9215 24.4226 40.7645C24.1086 40.6075 23.8269 40.3998 23.5776 40.1412C23.2636 40.4367 22.8296 40.6537 22.2755 40.7922C21.7307 40.9307 20.9873 41 20.0454 41H19.9762V38.3959ZM22.1786 44.6846L20.9735 43.4795C20.4379 44.0151 20.1701 44.2829 20.1701 44.2829L19.7684 44.6846L18.4802 43.3963L19.7684 42.0943L20.9735 43.2994C20.9735 43.2994 21.3752 42.8977 22.1786 42.0943L23.4806 43.3963L22.1786 44.6846ZM35.8176 41C33.9984 40.9908 32.7472 40.4367 32.0638 39.3378C31.1681 39.7995 30.4016 40.1458 29.7644 40.3767C29.1273 40.6075 28.4901 40.7691 27.8529 40.8615C27.2157 40.9446 26.44 40.9908 25.5258 41H25.3457V38.3959H26.2184C27.1788 38.3959 28.0607 38.3174 28.8641 38.1604C29.6767 37.9942 30.5586 37.6848 31.5098 37.2323C31.2974 37.14 31.1265 37.0569 30.9972 36.983C30.6556 36.8076 30.2954 36.669 29.9168 36.5675C29.5474 36.4659 29.2196 36.4151 28.9333 36.4151C28.3885 36.4151 27.9129 36.6737 27.5066 37.1908L26.0799 36.1242C26.8279 34.6375 27.8021 33.8941 29.0026 33.8941C29.3997 33.8941 29.7829 33.9587 30.1523 34.088C30.5217 34.2081 31.0665 34.4574 31.7868 34.836C32.3132 35.1038 32.7564 35.307 33.1165 35.4455C33.4859 35.5748 33.8969 35.6856 34.3494 35.7779L34.4325 38.1327C34.2939 38.1789 34.1831 38.2204 34.1 38.2574C34.3586 38.3497 34.631 38.3959 34.9173 38.3959H35.97L36.1085 39.6979L35.97 41H35.8176ZM30.1384 41.9696L31.6067 43.4379L30.1384 44.92L28.6563 43.4379L30.1384 41.9696ZM35.8295 38.3959H38.7245L38.8631 39.6979L38.7245 41H35.8295V38.3959ZM38.5755 38.3959H41.4705L41.609 39.6979L41.4705 41H38.5755V38.3959ZM41.3215 38.3959H44.2165L44.355 39.6979L44.2165 41H41.3215V38.3959ZM44.0537 38.3959H44.8016C45.6604 38.3959 46.2699 38.3266 46.6301 38.1881C46.9994 38.0496 47.1841 37.8557 47.1841 37.6063C47.1841 37.3755 46.9302 36.6506 46.4223 35.4316L48.1815 34.462C48.3661 34.8498 48.5508 35.3716 48.7355 36.0272C48.9294 36.6737 49.0264 37.2554 49.0264 37.7726C49.0264 38.8068 48.7032 39.6056 48.0568 40.1689C47.4104 40.723 46.4638 41 45.2172 41H44.0537V38.3959ZM46.6162 44.6846L45.4111 43.4795C44.8755 44.0151 44.6077 44.2829 44.6077 44.2829L44.206 44.6846L42.9178 43.3963L44.206 42.0943L45.4111 43.2994C45.4111 43.2994 45.8128 42.8977 46.6162 42.0943L47.9183 43.3963L46.6162 44.6846ZM53.2447 41.0831C51.9611 41.0831 50.8391 40.6906 49.8787 39.9057L50.7652 38.0911C51.0792 38.2297 51.4116 38.3543 51.7626 38.4651C52.1135 38.5667 52.5198 38.6175 52.9815 38.6175C53.4709 38.6083 53.8726 38.5621 54.1866 38.479C54.5098 38.3959 54.7314 38.3035 54.8515 38.202C54.6021 37.297 53.6325 36.2904 51.9426 35.1823L53.1754 32.8968C54.2743 33.6355 55.1516 34.4805 55.8072 35.4316C56.4629 36.3735 56.7907 37.2831 56.7907 38.1604C56.7907 38.5483 56.7122 38.9361 56.5552 39.3239C56.3151 39.8965 55.8857 40.3351 55.267 40.6399C54.6483 40.9354 53.9742 41.0831 53.2447 41.0831Z" fill="#07C5AE"/>
<path opacity="0.4" d="M98.6967 27.54V36.5784C98.6967 38.9067 96.8817 41.4 94.7 42.1334L88.8517 44.0767C87.825 44.425 86.1567 44.425 85.1483 44.0767L79.3 42.1334C77.1 41.4 75.3033 38.9067 75.3033 36.5784L75.3217 27.54L83.425 32.82C85.405 34.1217 88.6683 34.1217 90.6483 32.82L98.6967 27.54Z" fill="#07C5AE"/>
<path d="M101.63 15.8434L90.6483 8.63836C88.6683 7.33669 85.405 7.33669 83.425 8.63836L72.3883 15.8434C68.85 18.135 68.85 23.3234 72.3883 25.6334L75.3216 27.54L83.425 32.82C85.405 34.1217 88.6683 34.1217 90.6483 32.82L98.6966 27.54L101.208 25.89V31.5C101.208 32.2517 101.832 32.875 102.583 32.875C103.335 32.875 103.958 32.2517 103.958 31.5V22.48C104.692 20.115 103.94 17.365 101.63 15.8434Z" fill="#07C5AE"/>
</svg>
